<?xml version="1.0" encoding="UTF-8"?>
<svg xmlns="http://www.w3.org/2000/svg" xmlns:xlink="http://www.w3.org/1999/xlink" width="64pt" height="64pt" viewBox="0 0 64 64" version="1.1">
<g id="surface2462946">
<path style=" stroke:none;fill-rule:nonzero;fill:rgb(100%,100%,100%);fill-opacity:1;" d="M 21.308594 4.035156 C 20.761719 3.980469 20.265625 4.371094 20.203125 4.917969 L 19.984375 6.910156 C 19.921875 7.457031 20.316406 7.949219 20.867188 8.011719 C 20.902344 8.015625 20.941406 8.019531 20.980469 8.019531 C 21.480469 8.019531 21.914062 7.640625 21.972656 7.128906 L 22.191406 5.140625 C 22.25 4.59375 21.855469 4.097656 21.308594 4.035156 Z M 15.628906 4.082031 C 15.078125 4.148438 14.691406 4.648438 14.757812 5.195312 L 15.007812 7.183594 C 15.070312 7.6875 15.5 8.054688 15.996094 8.054688 C 16.039062 8.054688 16.082031 8.054688 16.125 8.046875 C 16.671875 7.980469 17.058594 7.480469 16.992188 6.933594 L 16.742188 4.945312 C 16.675781 4.398438 16.171875 4.015625 15.628906 4.078125 Z M 26.476562 5.296875 C 26.089844 5.308594 25.726562 5.550781 25.578125 5.9375 L 24.863281 7.804688 C 24.667969 8.320312 24.921875 8.898438 25.4375 9.09375 C 25.558594 9.140625 25.679688 9.164062 25.796875 9.164062 C 26.199219 9.164062 26.578125 8.917969 26.730469 8.519531 L 27.449219 6.652344 C 27.644531 6.136719 27.386719 5.558594 26.871094 5.363281 C 26.742188 5.3125 26.609375 5.292969 26.480469 5.296875 Z M 10.523438 5.34375 C 10.394531 5.335938 10.261719 5.351562 10.128906 5.402344 C 9.609375 5.585938 9.339844 6.15625 9.527344 6.675781 L 10.199219 8.5625 C 10.347656 8.96875 10.734375 9.226562 11.140625 9.226562 C 11.253906 9.226562 11.371094 9.203125 11.480469 9.164062 C 12 8.976562 12.273438 8.40625 12.085938 7.886719 L 11.410156 6.003906 C 11.269531 5.613281 10.914062 5.363281 10.523438 5.34375 Z M 31.1875 7.992188 C 30.9375 8.023438 30.695312 8.152344 30.523438 8.367188 L 29.292969 9.945312 C 28.953125 10.382812 29.03125 11.011719 29.46875 11.351562 C 29.652344 11.492188 29.867188 11.5625 30.082031 11.5625 C 30.378906 11.5625 30.675781 11.429688 30.871094 11.175781 L 32.097656 9.597656 C 32.441406 9.164062 32.363281 8.535156 31.925781 8.195312 C 31.707031 8.027344 31.441406 7.960938 31.1875 7.992188 Z M 17.652344 11.097656 C 17.269531 11.109375 16.882812 11.148438 16.496094 11.195312 C 13.390625 11.601562 10.132812 13.042969 8.445312 14.167969 C 8.195312 14.335938 8.035156 14.601562 8.003906 14.902344 C 7.976562 15.199219 8.082031 15.496094 8.292969 15.707031 C 11.828125 19.242188 10.882812 25.171875 10.25 28.328125 C 10.242188 28.328125 10.234375 28.320312 10.222656 28.316406 C 9.625 28.117188 8.886719 27.910156 8.117188 27.71875 C 6.578125 27.332031 5.027344 27 4 27 C 2.871094 27 1.890625 27.703125 1.324219 28.664062 C 0.761719 29.621094 0.5 30.847656 0.5 32.253906 C 0.5 33.636719 0.777344 34.816406 1.128906 35.734375 C 1.480469 36.652344 1.867188 37.28125 2.292969 37.707031 C 2.5625 37.976562 2.957031 38.070312 3.316406 37.949219 C 3.316406 37.949219 6.039062 37.03125 9.917969 37.855469 C 13.796875 38.675781 18.761719 41.214844 23.144531 48.515625 C 23.355469 48.871094 23.769531 49.058594 24.179688 48.984375 C 24.589844 48.910156 24.910156 48.589844 24.984375 48.179688 C 25.402344 45.894531 25.175781 43.546875 24.753906 41.59375 C 25.332031 41.636719 25.78125 41.640625 26.132812 41.648438 C 26.300781 42.359375 26.511719 43.421875 26.5625 44.832031 C 26.621094 46.519531 26.484375 48.386719 26.050781 49.683594 C 25.960938 49.949219 25.988281 50.238281 26.121094 50.480469 C 26.257812 50.726562 26.488281 50.902344 26.757812 50.96875 C 30.671875 51.945312 34.90625 53.515625 39.257812 58.335938 C 40.535156 59.753906 42.085938 60.269531 43.390625 59.835938 C 44.695312 59.40625 45.597656 58.324219 46.347656 57.136719 C 47.839844 54.769531 48.730469 51.65625 48.949219 51.003906 C 48.835938 51.34375 49.011719 50.953125 49.398438 50.625 C 49.78125 50.296875 50.339844 49.859375 51.007812 49.347656 C 52.339844 48.324219 54.101562 46.980469 55.859375 45.390625 C 59.375 42.203125 63 37.988281 63 33 C 63 32.585938 62.742188 32.210938 62.355469 32.066406 C 61.964844 31.917969 61.527344 32.023438 61.253906 32.335938 C 59.320312 34.511719 55.847656 37.726562 52.472656 39.832031 C 50.78125 40.886719 49.113281 41.660156 47.746094 41.925781 C 46.789062 42.113281 46.085938 41.988281 45.472656 41.703125 C 46.265625 40.777344 47.152344 39.742188 47.855469 38.585938 C 48.316406 37.820312 48.699219 37.210938 48.792969 36.421875 C 48.8125 36.226562 48.820312 36 48.722656 35.722656 C 48.625 35.445312 48.367188 35.136719 48.066406 35 C 47.46875 34.726562 47.046875 34.902344 46.628906 35.070312 C 45.40625 35.558594 44.613281 36.015625 43.972656 36.296875 C 43.332031 36.582031 42.867188 36.726562 42 36.726562 C 41.289062 36.726562 40.242188 36.382812 39.433594 35.628906 C 38.621094 34.875 38 33.742188 38 32 C 38 31.0625 37.445312 30.238281 36.703125 29.730469 C 36.320312 29.472656 35.886719 29.277344 35.414062 29.136719 C 35.796875 28.039062 35.804688 26.835938 35.554688 25.667969 C 35.191406 23.984375 34.347656 22.304688 33.300781 20.742188 C 32.253906 19.175781 31.007812 17.730469 29.792969 16.566406 C 28.574219 15.402344 27.433594 14.523438 26.394531 14.082031 C 26.0625 13.9375 25.675781 13.984375 25.390625 14.207031 C 25.101562 14.429688 24.957031 14.789062 25.011719 15.148438 C 26.269531 23.523438 20.179688 30.882812 18.8125 32.425781 L 17.3125 31.425781 C 17.675781 30.832031 18.609375 29.367188 19.90625 26.617188 C 21.433594 23.367188 23 19.308594 23 15.753906 C 23 13.871094 22.148438 12.421875 20.867188 11.730469 C 20.222656 11.382812 19.519531 11.199219 18.78125 11.128906 C 18.414062 11.09375 18.035156 11.085938 17.652344 11.097656 Z M 35.308594 11.554688 C 35.054688 11.554688 34.796875 11.648438 34.597656 11.84375 L 33.171875 13.246094 C 32.78125 13.632812 32.773438 14.265625 33.160156 14.65625 C 33.355469 14.855469 33.613281 14.957031 33.871094 14.957031 C 34.125 14.957031 34.378906 14.863281 34.574219 14.671875 L 36.003906 13.269531 C 36.394531 12.882812 36.402344 12.25 36.011719 11.855469 C 35.820312 11.660156 35.5625 11.558594 35.308594 11.554688 Z M 17.707031 13.105469 C 18.625 13.078125 19.402344 13.210938 19.914062 13.488281 C 20.601562 13.859375 21 14.382812 21 15.75 C 21 18.695312 19.566406 22.636719 18.09375 25.761719 C 16.625 28.890625 15.152344 31.21875 15.152344 31.21875 C 14.863281 31.675781 14.996094 32.28125 15.445312 32.582031 L 18.445312 34.582031 C 18.847656 34.851562 19.378906 34.792969 19.714844 34.449219 C 19.714844 34.449219 27.292969 26.660156 27.070312 17.011719 C 27.539062 17.363281 27.878906 17.503906 28.40625 18.011719 C 29.519531 19.074219 30.6875 20.425781 31.636719 21.847656 C 32.585938 23.273438 33.316406 24.773438 33.597656 26.085938 C 33.882812 27.398438 33.75 28.441406 33.097656 29.277344 C 33.007812 29.398438 32.90625 29.511719 32.792969 29.621094 C 32.679688 29.734375 32.554688 29.835938 32.417969 29.9375 C 32.414062 29.9375 32.414062 29.9375 32.414062 29.9375 C 27.039062 33.832031 21.660156 35.789062 21.660156 35.789062 C 21.265625 35.933594 21.003906 36.304688 21 36.722656 C 21 36.726562 21 36.726562 21 36.730469 C 20.996094 36.902344 21.039062 37.074219 21.121094 37.226562 C 21.121094 37.226562 21.878906 38.628906 22.492188 40.738281 C 22.839844 41.949219 23.039062 43.496094 23.097656 45.074219 C 18.871094 39.296875 14.171875 36.710938 10.332031 35.894531 C 6.761719 35.140625 4.410156 35.65625 3.488281 35.894531 C 3.335938 35.675781 3.183594 35.503906 2.996094 35.015625 C 2.722656 34.3125 2.5 33.367188 2.5 32.25 C 2.5 31.109375 2.738281 30.203125 3.050781 29.675781 C 3.359375 29.148438 3.628906 29 4 29 C 4.472656 29 6.171875 29.292969 7.632812 29.65625 C 8.363281 29.839844 9.0625 30.042969 9.589844 30.214844 C 9.851562 30.304688 10.074219 30.386719 10.21875 30.449219 C 10.359375 30.511719 10.453125 30.617188 10.292969 30.457031 C 10.554688 30.71875 10.9375 30.816406 11.289062 30.707031 C 11.644531 30.601562 11.910156 30.308594 11.980469 29.945312 C 12.425781 27.71875 14.351562 20.398438 10.527344 15.351562 C 12.09375 14.503906 14.523438 13.46875 16.753906 13.179688 C 17.085938 13.136719 17.402344 13.113281 17.710938 13.101562 Z M 38.945312 15.707031 C 38.691406 15.660156 38.421875 15.710938 38.195312 15.867188 L 36.546875 17 C 36.089844 17.3125 35.972656 17.9375 36.289062 18.390625 C 36.480469 18.671875 36.792969 18.824219 37.113281 18.824219 C 37.308594 18.824219 37.503906 18.769531 37.679688 18.648438 L 39.328125 17.515625 C 39.78125 17.203125 39.898438 16.578125 39.585938 16.125 C 39.429688 15.898438 39.195312 15.753906 38.945312 15.707031 Z M 41.332031 20.585938 C 41.203125 20.574219 41.070312 20.589844 40.9375 20.632812 L 39.039062 21.261719 C 38.515625 21.4375 38.230469 22 38.40625 22.527344 C 38.542969 22.945312 38.933594 23.210938 39.355469 23.210938 C 39.457031 23.210938 39.566406 23.195312 39.671875 23.160156 L 41.566406 22.53125 C 42.089844 22.355469 42.375 21.792969 42.203125 21.269531 C 42.070312 20.875 41.722656 20.617188 41.332031 20.585938 Z M 34.238281 31 C 34.785156 31.082031 35.308594 31.199219 35.574219 31.386719 C 35.925781 31.621094 36 31.800781 36 32 C 36 34.246094 36.878906 35.976562 38.066406 37.089844 C 39.257812 38.203125 40.710938 38.730469 42 38.730469 C 43.132812 38.730469 44.007812 38.472656 44.789062 38.125 C 45.207031 37.9375 45.726562 37.699219 46.175781 37.480469 C 46.160156 37.511719 46.164062 37.511719 46.148438 37.546875 C 45.324219 38.894531 43.925781 40.664062 43.296875 41.292969 C 43.105469 41.480469 43 41.734375 43 42 C 43 42.265625 43.105469 42.519531 43.296875 42.707031 C 44.566406 43.976562 46.371094 44.234375 48.128906 43.890625 C 49.886719 43.546875 51.71875 42.664062 53.53125 41.53125 C 56.125 39.910156 58.472656 37.84375 60.46875 35.902344 C 59.441406 38.839844 57.050781 41.609375 54.515625 43.90625 C 52.835938 45.425781 51.128906 46.730469 49.789062 47.761719 C 49.121094 48.277344 48.542969 48.71875 48.09375 49.105469 C 47.644531 49.496094 47.289062 49.65625 47.050781 50.367188 C 46.769531 51.210938 45.910156 54.078125 44.65625 56.070312 C 44.394531 56.484375 44.117188 56.828125 43.847656 57.121094 C 43.371094 56.992188 42.828125 56.234375 42.5 55.25 C 42 53.75 44 52.75 44.5 55.25 C 45.5 53.75 45 50.75 43 50.75 C 40.5 50.75 41.5 54.25 41.5 54.25 C 41.5 54.25 40.527344 53.78125 39.5 53.25 C 41.417969 55.929688 41.980469 57.285156 41.832031 57.882812 C 41.53125 57.746094 41.1875 57.488281 40.742188 56.992188 C 36.425781 52.214844 32.03125 50.363281 28.152344 49.300781 C 28.363281 48.363281 28.488281 47.378906 28.539062 46.398438 C 30.164062 47.734375 33.207031 48.535156 34 46.753906 C 36 42.253906 39.5 42.753906 41 42.753906 C 36 40.253906 34 44.253906 33 44.753906 C 32 45.253906 30.5 43.753906 29.5 42.753906 C 28.226562 41.480469 29 40.753906 30 39.753906 C 23.5 39.753906 24.996094 36.492188 26 36.09375 L 25.949219 36.101562 C 27.90625 35.175781 30.570312 33.753906 33.582031 31.5625 L 33.585938 31.558594 C 33.828125 31.386719 34.042969 31.195312 34.238281 31 Z M 30.992188 40.992188 C 30.6875 40.992188 30.410156 41.179688 30.296875 41.460938 C 30.179688 41.746094 30.25 42.070312 30.46875 42.28125 L 31.46875 43.28125 C 31.660156 43.472656 31.933594 43.546875 32.195312 43.476562 C 32.453125 43.410156 32.65625 43.207031 32.726562 42.945312 C 32.796875 42.6875 32.722656 42.410156 32.53125 42.21875 L 31.53125 41.21875 C 31.390625 41.074219 31.195312 40.992188 30.992188 40.992188 Z M 30.992188 40.992188 "/>
</g>
</svg>
